<?xml version="1.0" encoding="UTF-8"?>
<svg width="512" height="512" viewBox="0 0 512 512" fill="none" xmlns="http://www.w3.org/2000/svg">
  <rect width="512" height="512" rx="128" fill="#2563EB"/>
  <path d="M256 128C179.3 128 128 179.3 128 256C128 332.7 179.3 384 256 384C332.7 384 384 332.7 384 256C384 179.3 332.7 128 256 128ZM256 352C196.5 352 160 315.5 160 256C160 196.5 196.5 160 256 160C315.5 160 352 196.5 352 256C352 315.5 315.5 352 256 352Z" fill="white"/>
  <path d="M256 192C214.1 192 192 214.1 192 256C192 297.9 214.1 320 256 320C297.9 320 320 297.9 320 256C320 214.1 297.9 192 256 192ZM256 288C231.7 288 224 280.3 224 256C224 231.7 231.7 224 256 224C280.3 224 288 231.7 288 256C288 280.3 280.3 288 256 288Z" fill="white"/>
</svg>